# xmcd
#
# Track frame offsets: 
#        150
#        17300
#        29465
#        44295
#        57670
#        70292
#        82507
#        108725
#        119277
#        136867
#        152162
#        170762
#        187270
#        208955
#
# Disc length: 2945 seconds
#
# Revision: 0
# Processed by: cddbd v1.5.2PL0 Copyright (c) Steve Scherf et al.
# Submitted via: ExactAudioCopy v0.99pb5
#
DISCID=c60b7f0e
DTITLE=Cathy Jean - Tear Me Apart
DYEAR=1996
DGENRE=Blues
TTITLE0=Trouble No More
TTITLE1=Hello Little Boy
TTITLE2=Ain't That Lovin' You
TTITLE3=That's All Right
TTITLE4=Baby Get Lost
TTITLE5=Rock This House
TTITLE6=One Good Man
TTITLE7=Mama, Talk To Your Daughter
TTITLE8=I'm A Man
TTITLE9=Who Do You Love
TTITLE10=Sweet Blood Call
TTITLE11=Rollin' And Tumblin'
TTITLE12=You The Kind Of Women
TTITLE13=Do Nothing 'Til You Hear From Me
EXTD=
EXTT0=
EXTT1=
EXTT2=
EXTT3=
EXTT4=
EXTT5=
EXTT6=
EXTT7=
EXTT8=
EXTT9=
EXTT10=
EXTT11=
EXTT12=
EXTT13=
PLAYORDER=
